# xmcd CD database file
#
# Track frame offsets:
#	150
#	18300
#	34811
#	48809
#	64208
#	82838
#	100277
#	118439
#	132830
#	151528
#	171300
#
# Disc length: 2499 seconds
#
# Revision: 0
# Processed by: cddbd v1.5.2PL0 Copyright (c) Steve Scherf et al.
# Submitted via: CDex 1.70beta2
#
DISCID=8609c10b
DTITLE=SUPERMACHINE - SUPERMACHINE
DYEAR=2013
DGENRE=Stoner
TTITLE0=SOLUTION
TTITLE1=BROKEN
TTITLE2=TRANSFORMER
TTITLE3=MT
TTITLE4=JOSEY WALES
TTITLE5=FLESH FARM
TTITLE6=BUFFALO
TTITLE7=PILL CRUISE
TTITLE8=CRUTCH
TTITLE9=HEAVY BULLET
TTITLE10=WARLORD
EXTD=YEAR: 2013
EXTT0=
EXTT1=
EXTT2=
EXTT3=
EXTT4=
EXTT5=
EXTT6=
EXTT7=
EXTT8=
EXTT9=
EXTT10=
PLAYORDER=
